<svg xmlns="http://www.w3.org/2000/svg" width="752" height="146" viewBox="0 0 752 146">
  <g fill="none" transform="translate(0 -7)">
    <path fill="#383E52" fill-opacity=".896" d="M186.410625,121.083456 C189.620865,121.083456 193.031745,120.521664 196.643265,119.39808 L196.643265,119.39808 L196.522881,109.285824 C193.713921,110.16864 191.346369,110.610048 189.420225,110.610048 C187.012545,110.610048 185.166657,109.988064 183.882561,108.744096 C182.598465,107.500128 181.956417,105.634176 181.956417,103.14624 L181.956417,103.14624 L181.956417,70.6425587 L196.522881,70.6425587 L196.522881,60.6506864 L181.956417,60.6506864 L181.956417,36.6942697 L169.556864,45.843454 L169.556864,60.6506864 L159.80576,60.6506864 L159.80576,70.6425587 L169.556864,70.6425587 L169.556864,104.229696 C169.556864,109.927872 171.101792,114.161376 174.191648,116.930208 C177.281505,119.69904 181.354497,121.083456 186.410625,121.083456 Z M225.103138,120 L225.103138,89.0613112 C225.103138,83.202623 226.327042,78.7885429 228.77485,75.8190708 C231.222658,72.8495987 234.69373,71.3648627 239.188066,71.3648627 C241.756258,71.3648627 244.204066,72.0470387 246.53149,73.4113907 L246.53149,73.4113907 L252.55069,62.5768304 C249.179938,60.5704304 245.52829,59.5672304 241.595746,59.5672304 C238.144738,59.5672304 234.914434,60.4901744 231.904834,62.3360624 C228.895234,64.1819505 226.66813,66.8705266 225.223522,70.4017907 L225.223522,70.4017907 L225.223522,60.6506864 L212.703585,60.6506864 L212.703585,120 L225.103138,120 Z M280.769795,121.083456 C284.943107,121.083456 288.695075,120.260832 292.025699,118.615584 C295.356323,116.970336 297.984708,114.622848 299.910852,111.57312 L299.910852,111.57312 L300.873924,120 L312.19002,120 L312.19002,82.680959 C312.19002,75.4579188 309.98298,69.7998706 305.5689,65.7068145 C301.15482,61.6137584 295.095491,59.5672304 287.390915,59.5672304 C276.957635,59.5672304 268.330115,63.7405425 261.508355,72.0871667 L261.508355,72.0871667 L270.537155,79.6713589 C275.031491,73.4916467 280.609283,70.4017907 287.270531,70.4017907 C291.203075,70.4017907 294.272867,71.4852467 296.479907,73.6521587 C298.686948,75.8190708 299.790468,78.8286709 299.790468,82.680959 L299.790468,82.680959 L299.790468,84.727487 L285.946307,84.727487 C277.920707,84.727487 271.901507,85.7306871 267.888707,87.7370871 C265.240259,89.1014392 263.213795,91.0075192 261.809315,93.4553273 C260.404835,95.9031353 259.702594,98.8124154 259.702594,102.183168 C259.702594,107.881344 261.628739,112.455936 265.481027,115.906944 C269.333315,119.357952 274.429571,121.083456 280.769795,121.083456 Z M283.057091,110.610048 C279.686339,110.610048 277.017827,109.86768 275.051555,108.382944 C273.085283,106.898208 272.102147,104.911872 272.102147,102.423936 C272.102147,99.7754875 272.984963,97.8493434 274.750595,96.6455034 C275.874179,95.7626873 277.399043,95.1407033 279.325187,94.7795513 C281.251331,94.4183993 283.939907,94.2378233 287.390915,94.2378233 L287.390915,94.2378233 L299.790468,94.2378233 L299.790468,94.4785913 C299.790468,99.1334394 298.205412,102.985728 295.035299,106.035456 C291.865187,109.085184 287.872451,110.610048 283.057091,110.610048 Z M345.224485,49.0938221 L345.224485,36.0923497 L331.982244,36.0923497 L331.982244,49.0938221 L345.224485,49.0938221 Z M344.863333,120 L344.863333,60.6506864 L332.46378,60.6506864 L332.46378,120 L344.863333,120 Z M379.222021,120 L379.222021,95.3212793 C379.222021,87.7772151 380.265349,81.737951 382.352006,77.2034868 C384.438662,72.6690227 388.371206,70.4017907 394.149638,70.4017907 C398.72423,70.4017907 401.794022,71.8062707 403.359014,74.6152308 C404.924006,77.4241908 405.706502,81.0357109 405.706502,85.4497911 L405.706502,85.4497911 L405.706502,120 L418.106055,120 L418.106055,82.319807 C418.106055,75.0165108 416.360486,69.3985906 412.86935,65.4660465 C409.378214,61.5335024 404.34215,59.5672304 397.761158,59.5672304 C393.828614,59.5672304 390.257222,60.2694704 387.046982,61.6739504 C383.836742,63.0784305 381.228422,65.1851505 379.222021,67.9941106 L379.222021,67.9941106 L379.222021,60.6506864 L366.822469,60.6506864 L366.822469,120 L379.222021,120 Z M459.5674,121.083456 C463.259176,121.083456 466.670056,120.441408 469.80004,119.157312 C472.930024,117.873216 475.498216,115.947072 477.504616,113.37888 L477.504616,113.37888 L477.504616,120 L489.904168,120 L489.904168,36.0923497 L477.504616,36.0923497 L477.504616,67.2718066 C475.658728,64.8641265 473.130664,62.9580464 469.920424,61.5535664 C466.710184,60.1490864 463.259176,59.4468464 459.5674,59.4468464 C454.511271,59.4468464 450.077127,60.6908144 446.264967,63.1787505 C442.452807,65.6666865 439.483335,69.2380786 437.356551,73.8929267 C435.229767,78.5477749 434.166375,84.005183 434.166375,90.2651512 C434.166375,99.4143354 436.393479,106.838016 440.847687,112.536192 C445.301895,118.234368 451.541799,121.083456 459.5674,121.083456 Z M462.336232,109.76736 C457.119591,109.76736 453.187047,108.041856 450.538599,104.590848 C447.890151,101.139839 446.565927,96.4047354 446.565927,90.3855352 C446.565927,84.205823 447.930279,79.3703989 450.658983,75.8792628 C453.387687,72.3881267 457.320231,70.6425587 462.456616,70.6425587 C467.673256,70.6425587 471.686056,72.4683827 474.495016,76.1200308 C477.303976,79.7716789 478.708456,84.526847 478.708456,90.3855352 C478.708456,96.1639674 477.32404,100.838879 474.555208,104.410272 C471.786376,107.981664 467.713384,109.76736 462.336232,109.76736 Z M535.578953,121.083456 C540.47457,121.083456 544.848522,120.240768 548.70081,118.555392 C552.553098,116.870016 556.164618,114.221568 559.53537,110.610048 L559.53537,110.610048 L550.867722,103.14624 C548.70081,105.55392 546.39345,107.279424 543.945642,108.322752 C541.497834,109.36608 538.749066,109.887744 535.699337,109.887744 C530.723465,109.887744 526.831049,108.483264 524.022089,105.674304 C521.213129,102.865344 519.688265,99.0531834 519.447497,94.2378233 L519.447497,94.2378233 L561.100362,94.2378233 C561.34113,92.3919352 561.461514,90.5861752 561.461514,88.8205432 C561.461514,83.443391 560.478378,78.5477749 558.512106,74.1336948 C556.545834,69.7196146 553.536234,66.1883505 549.483306,63.5399025 C545.430378,60.8914544 540.47457,59.5672304 534.615881,59.5672304 C528.596681,59.5672304 523.520489,61.0118384 519.387305,63.9010545 C515.254121,66.7902706 512.164265,70.5823667 510.117737,75.2773428 C508.071209,79.9723189 507.047945,85.0886391 507.047945,90.6263032 C507.047945,96.2442234 508.091273,101.360543 510.177929,105.975264 C512.264585,110.589984 515.454761,114.261696 519.748457,116.9904 C524.042153,119.719104 529.318985,121.083456 535.578953,121.083456 Z M549.543498,84.245951 L519.447497,84.245951 C519.929033,80.2331509 521.453897,76.8423348 524.022089,74.0735028 C526.590281,71.3046707 530.121545,69.9202546 534.615881,69.9202546 C539.029962,69.9202546 542.58129,71.2043507 545.269866,73.7725427 C547.958442,76.3407348 549.382986,79.7516149 549.543498,84.005183 L549.543498,84.005183 L549.543498,84.245951 Z M590.884459,120 L590.884459,95.4416633 C590.884459,90.3052792 591.145291,85.9915191 591.666955,82.500383 C592.188619,79.0092469 593.392459,76.1200308 595.278475,73.8327347 C597.164491,71.5454387 599.953387,70.4017907 603.645163,70.4017907 C611.028715,70.4017907 614.720491,75.6986868 614.720491,86.2924791 L614.720491,86.2924791 L614.720491,120 L627.120044,120 L627.120044,95.4416633 C627.120044,90.3052792 627.380876,85.9915191 627.90254,82.500383 C628.424204,79.0092469 629.628044,76.1200308 631.51406,73.8327347 C633.400076,71.5454387 636.2291,70.4017907 640.001132,70.4017907 C644.65598,70.4017907 647.66558,71.9868467 649.029932,75.1569588 C650.394284,78.3270709 651.07646,81.958655 651.07646,86.0517111 L651.07646,86.0517111 L651.07646,120 L663.476013,120 L663.476013,82.440191 C663.476013,75.6986868 661.770573,70.2011506 658.359693,65.9475825 C654.948813,61.6940144 649.832492,59.5672304 643.010732,59.5672304 C634.262828,59.5672304 627.842348,63.4596465 623.749292,71.2444787 C622.144172,67.1514226 619.816748,64.1819505 616.76702,62.3360624 C613.717291,60.4901744 610.266283,59.5672304 606.413995,59.5672304 C599.110699,59.5672304 593.733547,62.4163184 590.282539,68.1144946 L590.282539,68.1144946 L590.282539,60.6506864 L578.364522,60.6506864 L578.484906,120 L590.884459,120 Z M701.205454,144.558337 L734.551823,60.6506864 L720.94843,60.6506864 L704.816974,104.35008 L687.963213,60.6506864 L674.359821,60.6506864 L698.195854,118.675776 L687.842829,144.558337 L701.205454,144.558337 Z"/>
    <path fill="#4080D9" d="M47.22,142.85 C1.44,156 0.5,102 0.5,102 L0.5,7.63 C0.5,7.63 26.32,3.88 37.36,36.51 C36.89,49.66 37.36,56.7 37.36,57.64 C37.36,58.58 70.7,57.64 70.7,57.64 C70.7,57.64 73,82.52 54.49,87.21 L37.59,87.44 L37.36,109.74 C38,123.82 41,135.16 47.22,142.85 Z M103.94,114.91 L69.28,114.91 C69.28,114.91 69.28,146.37 43.46,152 C84.11,155.13 105.28,143.53 103.94,114.92 L103.94,114.91 Z"/>
  </g>
</svg>
