<svg xmlns="http://www.w3.org/2000/svg" width="188" height="27" viewBox="0 0 188 27">
  <g fill="none" fill-rule="evenodd" transform="translate(1)">
    <polygon stroke="#035302" stroke-width="1.369" points=".36 25.438 22.809 25.438 22.809 2.989 .36 2.989"/>
    <path fill="#035302" fill-rule="nonzero" d="M4.61291001 10.4783943C4.45780384 10.0756441 4.17966431 9.9210637 3.7464186 9.9210637L3.40518504 9.9210637 3.40518504 6.57865723 5.66500303 6.57865723C6.96474014 6.57865723 7.58358746 6.9808817 7.98633771 8.06399596L10.957541 16.3592841C11.2982487 17.287818 11.5458928 18.6185763 11.5458928 18.6185763L11.6079353 18.6185763C11.6079353 18.6185763 11.8550536 17.287818 12.1647401 16.3592841L15.1364692 8.06399596C15.5381678 6.9808817 16.1885622 6.57865723 17.4578038 6.57865723L19.5625157 6.57865723 19.5625157 9.9210637 19.1913124 9.9210637C18.757541 9.9210637 18.4794014 10.0756441 18.3242952 10.4783943L13.805185 22.3637331 9.13149444 22.3637331 4.61291001 10.4783943zM34.6662285 12.4285258C34.604186 10.5404368 33.3039232 9.2406997 31.6950253 9.2406997 29.6828514 9.2406997 28.2585035 10.4473731 27.8252578 12.4285258L34.6662285 12.4285258zM31.6950253 6.20692821C36.2136097 6.20692821 38.6900506 9.51883923 38.6900506 13.6972417 38.6900506 14.1615086 38.5969869 15.1520849 38.5969869 15.1520849L27.7022245 15.1520849C28.0113852 17.9382123 30.0545804 19.3925298 32.4374317 19.3925298 34.9759151 19.3925298 36.864004 17.6285258 36.864004 17.6285258L38.5044489 20.3520849C38.5044489 20.3520849 36.0900506 22.7354621 32.1587664 22.7354621 26.9277452 22.7354621 23.6784024 18.9592841 23.6784024 14.4711951 23.6784024 9.61190293 26.9592922 6.20692821 31.6950253 6.20692821zM42.4959879 10.6021112C42.4959879 10.1378443 42.2483438 9.92122144 41.8150981 9.92122144L40.5768777 9.92122144 40.5768777 6.57881496 44.1984752 6.57881496C45.591276 6.57881496 46.2721658 7.22815774 46.2721658 8.34334479L46.2721658 8.80708595C46.2721658 9.14779373 46.2101234 9.48797573 46.2101234 9.48797573L46.2721658 9.48797573C46.9530556 8.15721739 48.655543 6.20708595 51.8433691 6.20708595 55.3408817 6.20708595 57.3530556 8.03313246 57.3530556 12.2120607L57.3530556 18.37109C57.3530556 18.8048615 57.6006997 19.0519798 58.0339454 19.0519798L59.27164 19.0519798 59.27164 22.3638908 55.5264833 22.3638908C54.0411446 22.3638908 53.4217715 21.7445177 53.4217715 20.259179L53.4217715 13.0165096C53.4217715 11.0973994 52.9264833 9.79766229 50.9453306 9.79766229 48.8411446 9.79766229 47.2622164 11.1284206 46.7054115 13.0165096 46.4887887 13.6663782 46.3962508 14.3782892 46.3962508 15.1212214L46.3962508 22.3638908 42.4959879 22.3638908 42.4959879 10.6021112zM62.459361 9.70459858L60.4161658 9.70459858 60.4161658 6.57881496 62.5518989 6.57881496 62.5518989 2.27580182 66.3901193 2.27580182 66.3901193 6.57881496 69.9806957 6.57881496 69.9806957 9.70459858 66.3901193 9.70459858 66.3901193 16.0807765C66.3901193 18.6807765 68.4327887 19.0519798 69.5164287 19.0519798 69.9496744 19.0519798 70.227814 18.9899373 70.227814 18.9899373L70.227814 22.4259333C70.227814 22.4259333 69.7330516 22.5184712 69.0206148 22.5184712 66.823365 22.5184712 62.459361 21.8691284 62.459361 16.5755389L62.459361 9.70459858zM73.7867907 10.6021112C73.7867907 10.1378443 73.5386208 9.92122144 73.1053751 9.92122144L71.8682063 9.92122144 71.8682063 6.57881496 75.613363 6.57881496C77.0671547 6.57881496 77.6865278 7.22815774 77.6865278 8.65250556L77.6865278 15.9261962C77.6865278 17.8447806 78.1812902 19.1450435 80.1314216 19.1450435 82.9790657 19.1450435 84.5574681 16.6375814 84.5574681 13.8209585L84.5574681 6.57881496 88.4887523 6.57881496 88.4887523 18.37109C88.4887523 18.8048615 88.7363964 19.0519798 89.1696421 19.0519798L90.4078625 19.0519798 90.4078625 22.3638908 86.7867907 22.3638908C85.4244853 22.3638908 84.7125743 21.7140222 84.7125743 20.5998868L84.7125743 20.1661153C84.7125743 19.794912 84.7435956 19.45473 84.7435956 19.45473L84.6820789 19.45473C83.9391466 21.0946491 81.9579939 22.735094 79.233909 22.735094 75.8604813 22.735094 73.7867907 21.0331325 73.7867907 16.7306451L73.7867907 10.6021112zM93.5945844 10.6021112C93.5945844 10.1378443 93.3469403 9.92122144 92.9136946 9.92122144L91.676 9.92122144 91.676 6.57881496 95.2665763 6.57881496C96.6588514 6.57881496 97.3712882 7.16664105 97.3712882 8.49739939L97.3712882 9.42593327C97.3712882 10.0142851 97.3087199 10.4159838 97.3087199 10.4159838L97.3712882 10.4159838C98.0826734 8.15721739 99.9707624 6.36219211 102.385161 6.36219211 102.725343 6.36219211 103.097072 6.4237088 103.097072 6.4237088L103.097072 10.2924247C103.097072 10.2924247 102.694847 10.230908 102.137517 10.230908 100.466051 10.230908 98.5469403 11.1899373 97.8350293 13.542819 97.6184065 14.3162467 97.4948473 15.1832639 97.4948473 16.1117978L97.4948473 22.3638908 93.5945844 22.3638908 93.5945844 10.6021112zM115.167644 12.4285258C115.105602 10.5404368 113.805339 9.2406997 112.196441 9.2406997 110.184267 9.2406997 108.760445 10.4473731 108.327199 12.4285258L115.167644 12.4285258zM112.196441 6.20692821C116.715025 6.20692821 119.19094 9.51883923 119.19094 13.6972417 119.19094 14.1615086 119.098928 15.1520849 119.098928 15.1520849L108.20364 15.1520849C108.512801 17.9382123 110.555996 19.3925298 112.939373 19.3925298 115.477331 19.3925298 117.36542 17.6285258 117.36542 17.6285258L119.005865 20.3520849C119.005865 20.3520849 116.591466 22.7354621 112.660182 22.7354621 107.429687 22.7354621 104.179818 18.9592841 104.179818 14.4711951 104.179818 9.61190293 107.460708 6.20692821 112.196441 6.20692821z"/>
    <path fill="#000" fill-rule="nonzero" d="M130.17966 20.8780263C132.934241 20.8780263 135.194059 18.5566916 135.194059 14.594912 135.194059 10.7882386 133.150863 8.34334479 130.272724 8.34334479 127.672198 8.34334479 125.227304 10.199361 125.227304 14.6259333 125.227304 17.7522427 126.837254 20.8780263 130.17966 20.8780263zM123.184635 3.11179778C123.184635 2.67855207 122.936991 2.43143377 122.503219 2.43143377L121.204008 2.43143377 121.204008.604335693 123.401258.604335693C124.732542.604335693 125.289347 1.16166633 125.289347 2.49242467L125.289347 8.12672194C125.289347 8.83810718 125.227304 9.39543782 125.227304 9.39543782L125.289347 9.39543782C125.289347 9.39543782 126.58961 6.4237088 130.582411 6.4237088 134.760813 6.4237088 137.360287 9.76664105 137.360287 14.594912 137.360287 19.5162467 134.420105 22.735094 130.334766 22.735094 126.620105 22.735094 125.227304 19.7328696 125.227304 19.7328696L125.165788 19.7328696C125.165788 19.7328696 125.227304 20.259179 125.227304 21.0021112L125.227304 22.3638908 123.184635 22.3638908 123.184635 3.11179778zM141.29094 9.30205865C141.29094 8.86881294 141.043296 8.62169464 140.610051 8.62169464L139.309788 8.62169464 139.309788 6.79512235 141.507563 6.79512235C142.838322 6.79512235 143.395652 7.35245298 143.395652 8.62169464L143.395652 16.1425035C143.395652 18.5879232 143.798402 20.7541517 146.800627 20.7541517 150.328635 20.7541517 152.526411 17.628368 152.526411 14.2544146L152.526411 6.79512235 154.631122 6.79512235 154.631122 19.856639C154.631122 20.320906 154.878766 20.5375288 155.312012 20.5375288L156.612275 20.5375288 156.612275 22.3641011 154.476542 22.3641011C153.176279 22.3641011 152.588453 21.8067705 152.588453 20.6305925L152.588453 19.9186815C152.588453 19.2998342 152.64997 18.804546 152.64997 18.804546L152.588453 18.804546C151.969606 20.320906 149.926411 22.7353043 146.521436 22.7353043 142.838322 22.7353043 141.29094 20.7541517 141.29094 16.6998342L141.29094 9.30205865zM160.01583 9.30205865C160.01583 8.86881294 159.768186 8.62169464 159.33494 8.62169464L158.034677 8.62169464 158.034677 6.79512235 160.201958 6.79512235C161.501695 6.79512235 162.089521 7.32090597 162.089521 8.55965217L162.089521 9.6117452C162.089521 10.2616138 162.028004 10.7879232 162.028004 10.7879232L162.089521 10.7879232C162.832453 8.43556724 164.565962 6.64054196 167.011381 6.64054196 167.444627 6.64054196 167.847377 6.73360566 167.847377 6.73360566L167.847377 8.80729626C167.847377 8.80729626 167.475648 8.74472801 167.073424 8.74472801 164.875648 8.74472801 163.235203 10.4782366 162.554313 12.7690758 162.244627 13.7596522 162.121068 14.8117452 162.121068 15.8017958L162.121068 22.3641011 160.01583 22.3641011 160.01583 9.30205865zM171.405407 9.30205865C171.405407 8.86881294 171.157763 8.62169464 170.724518 8.62169464L169.424255 8.62169464 169.424255 6.79512235 171.591535 6.79512235C172.891272 6.79512235 173.479098 7.35245298 173.479098 8.52810516L173.479098 9.24054196C173.479098 9.85938928 173.417581 10.3546775 173.417581 10.3546775L173.479098 10.3546775C174.036429 8.93085541 176.017056 6.42339333 179.6702 6.42339333 183.538916 6.42339333 184.900696 8.62169464 184.900696 12.4593893L184.900696 19.856639C184.900696 20.320906 185.14834 20.5375288 185.581585 20.5375288L186.881848 20.5375288 186.881848 22.3641011 184.684073 22.3641011C183.353314 22.3641011 182.795984 21.8067705 182.795984 20.4760121L182.795984 13.0161941C182.795984 10.5713003 182.424781 8.40454601 179.42203 8.40454601 176.760514 8.40454601 174.469674 10.2311183 173.758289 12.7995713 173.572162 13.4499656 173.510645 14.1613509 173.510645 14.9042831L173.510645 22.3641011 171.405407 22.3641011 171.405407 9.30205865z"/>
  </g>
</svg>
